PathFileType	4	(X/Y/Z)	C:\Users\dbl\Desktop\20210112\20210112\bx_n_5_1802.trc
DataRate	CameraRate	NumFrames	NumMarkers	Units	OrigDataRate	OrigDataStartFrame	OrigNumFrames
50.00	50.00	       5	43	mm	50.00	262	       523
Frame#	Time	Top.Head			R.Acromium			L.Acromium			Sternum			R.ASIS			L.ASIS			V.Sacral			R.Thigh.Upper			R.Thigh.Front			R.Thigh.Rear			R.Knee.Lat			R.Knee.Med			R.Shank.Upper			R.Shank.Front			R.Shank.Rear			R.Ankle.Lat			R.Midfoot.Lat			R.Toe.Lat			R.Toe.Tip			R.Toe.Med			R.Ankle.Med			R.Midfoot.Sup			R.Heel			L.Thigh.Upper			L.Thigh.Front			L.Thigh.Rear			L.Knee.Lat			L.Knee.Med			L.Shank.Upper			L.Shank.Front			L.Shank.Rear			L.Ankle.Lat			L.Midfoot.Lat			L.Toe.Lat			L.Toe.Tip			L.Toe.Med			L.Ankle.Med			L.Midfoot.Sup			L.Heel			origin1 front left			origin2 front right			origin 3 back right			origin 4 back leftt			
		X1	Y1	Z1	X2	Y2	Z2	X3	Y3	Z3	X4	Y4	Z4	X5	Y5	Z5	X6	Y6	Z6	X7	Y7	Z7	X8	Y8	Z8	X9	Y9	Z9	X10	Y10	Z10	X11	Y11	Z11	X12	Y12	Z12	X13	Y13	Z13	X14	Y14	Z14	X15	Y15	Z15	X16	Y16	Z16	X17	Y17	Z17	X18	Y18	Z18	X19	Y19	Z19	X20	Y20	Z20	X21	Y21	Z21	X22	Y22	Z22	X23	Y23	Z23	X24	Y24	Z24	X25	Y25	Z25	X26	Y26	Z26	X27	Y27	Z27	X28	Y28	Z28	X29	Y29	Z29	X30	Y30	Z30	X31	Y31	Z31	X32	Y32	Z32	X33	Y33	Z33	X34	Y34	Z34	X35	Y35	Z35	X36	Y36	Z36	X37	Y37	Z37	X38	Y38	Z38	X39	Y39	Z39	X40	Y40	Z40	X41	Y41	Z41	X42	Y42	Z42	X43	Y43	Z43	

262	5.220	-676.40387	93.40025	1854.17200	-658.58801	-81.93788	1543.05212	-671.72021	276.12537	1557.69531	-573.36737	104.02463	1360.27942	-558.26770	-11.48690	1065.72693	-594.68634	237.74199	1068.08276	-791.55463	91.57030	1060.91077	-661.58197	-75.51450	877.43976	-583.60443	-16.13276	805.51379	-685.97498	-62.32621	762.59045	-707.24377	-36.02819	618.32477	-684.43280	72.19536	577.93091	-714.26941	-32.56669	571.30219	-660.80121	13.96256	521.89325	-760.19745	-42.06619	491.47250	-759.00446	-17.88345	208.08267	-651.23462	-70.81760	158.95375	-609.85004	-80.59113	154.91431	-549.82928	-32.79016	162.15862	-597.12756	22.69228	169.18967	-714.87140	68.61642	217.34155	-671.56860	52.03160	159.67352	-789.77509	42.37776	177.43433	-685.42889	283.21326	878.86707	-582.71539	216.31342	816.68823	-697.78125	266.61926	748.12738	-729.10980	246.83881	646.05908	-682.82379	144.31763	582.88177	-729.41772	243.02435	579.58105	-673.26318	206.30626	538.82318	-770.21210	252.18069	505.30902	-769.22925	225.56874	205.92101	-662.26465	300.10562	155.10385	-625.50177	309.22281	156.99683	-556.58679	257.63174	163.88368	-592.23718	222.16528	174.80252	-710.73328	155.08878	217.82933	-674.62292	174.83911	159.23514	-794.63684	176.26923	186.08749	-528.20953	304.09674	146.33405	-517.91718	-72.84679	143.03075	-875.90063	-78.77995	141.22502	-882.58850	296.18237	144.64136	
263	5.240	-676.88336	93.55946	1854.16956	-659.17590	-82.02112	1543.24011	-672.42566	275.98309	1557.63147	-573.90820	103.73132	1360.28735	-558.78534	-11.49181	1066.19946	-594.90460	237.28391	1067.78479	-791.98468	91.18488	1060.82300	-661.96783	-75.91235	877.44672	-583.95142	-16.48945	805.61621	-686.38043	-62.70951	762.59180	-707.46344	-36.26539	618.14844	-684.65808	71.96230	577.94519	-714.48895	-32.73148	571.16760	-661.16644	13.67630	521.80005	-760.26807	-42.17050	491.31662	-759.07208	-17.89158	208.00473	-651.26495	-70.85086	158.94026	-609.90070	-80.59140	154.90279	-549.83612	-32.78167	162.18027	-597.12463	22.67891	169.18974	-714.95526	68.58868	217.44049	-671.54669	52.02173	159.70604	-789.71643	42.35781	177.38686	-685.71924	282.99615	878.94202	-583.11182	215.84409	816.68872	-698.06567	266.29861	748.09973	-729.32697	246.66792	645.98468	-683.00696	144.20573	582.78082	-729.67761	242.77666	579.45905	-673.53503	206.20029	538.79688	-770.44031	252.08505	505.32407	-769.26526	225.55106	205.93779	-662.25153	300.07770	155.07594	-625.51215	309.22278	157.01131	-556.59906	257.64020	163.88417	-592.26483	222.13606	174.79218	-710.78503	155.01985	217.76892	-674.60449	174.80270	159.18555	-794.67273	176.24832	186.00340	-528.21661	304.13666	146.34698	-517.91125	-72.82030	142.98605	-875.90973	-78.78196	141.21136	-882.60730	296.20029	144.65247	
264	5.260	-677.44788	93.76702	1854.15039	-659.74951	-82.18770	1543.39294	-673.10858	275.76163	1557.55554	-574.45599	103.38804	1360.27405	-559.40369	-11.52018	1066.66797	-595.12402	236.63478	1067.30933	-792.44983	90.82642	1060.75098	-662.45001	-76.25563	877.40173	-584.36810	-16.87299	805.69250	-686.80194	-63.00731	762.57916	-707.67700	-36.46221	617.96771	-684.92133	71.63984	577.98486	-714.73315	-32.91500	571.02118	-661.66187	13.33200	521.68536	-760.44019	-42.37874	491.21405	-759.12140	-17.91451	207.95557	-651.29468	-70.88659	158.91599	-609.93195	-80.63711	154.93085	-549.84271	-32.78458	162.20505	-597.13165	22.66159	169.18361	-715.03070	68.55923	217.57007	-671.55865	52.01984	159.74350	-789.67975	42.34257	177.34892	-686.16577	282.62723	878.93030	-583.60437	215.44345	816.66278	-698.40588	265.99243	748.09821	-729.66919	246.45778	645.93402	-683.19678	144.11546	582.67987	-729.95874	242.56712	579.39935	-673.80170	206.11316	538.72247	-770.67352	252.01045	505.33170	-769.29358	225.55069	205.92581	-662.24890	300.06134	155.07057	-625.53131	309.23981	157.01030	-556.60980	257.64163	163.87288	-592.29144	222.11592	174.78239	-710.84314	154.96178	217.69182	-674.59399	174.80031	159.11476	-794.69043	176.24548	185.89099	-528.19720	304.17038	146.34712	-517.92218	-72.78890	142.97362	-875.90771	-78.75389	141.20915	-882.62665	296.22275	144.67184	
265	5.280	-678.05151	93.98696	1854.13220	-660.28418	-82.44856	1543.49683	-673.78870	275.48911	1557.48291	-575.00635	103.05853	1360.25916	-560.12036	-11.57187	1067.13049	-595.40198	235.89983	1066.77100	-792.98511	90.47344	1060.72974	-662.97241	-76.56219	877.33942	-584.78290	-17.21144	805.74042	-687.20447	-63.18430	762.48907	-707.90802	-36.66562	617.83893	-685.20190	71.29076	578.03766	-715.00464	-33.14832	570.88428	-662.16394	12.99871	521.61090	-760.64282	-42.65163	491.17651	-759.15491	-17.94373	207.91144	-651.30792	-70.91470	158.88930	-609.93469	-80.71200	154.97368	-549.84863	-32.80103	162.22589	-597.16089	22.64614	169.14844	-715.07941	68.53777	217.68646	-671.61359	52.02806	159.79814	-789.66681	42.32684	177.31900	-686.69324	282.17618	878.88818	-584.11969	215.10284	816.65338	-698.77289	265.72128	748.14594	-730.11230	246.20242	645.92865	-683.45172	144.00624	582.58606	-730.23273	242.43633	579.45599	-674.05389	206.02455	538.64008	-770.89545	251.96927	505.36472	-769.31439	225.57074	205.88107	-662.25409	300.05795	155.08412	-625.55127	309.24884	157.00708	-556.61133	257.64102	163.85834	-592.29834	222.11223	174.77806	-710.89886	154.92906	217.61847	-674.63196	174.84338	159.03845	-794.68481	176.27599	185.78418	-528.18896	304.17151	146.33902	-517.95624	-72.76701	143.00026	-875.89539	-78.71493	141.22200	-882.64569	296.23538	144.68295	
266	5.300	-678.66949	94.15933	1854.13232	-660.78131	-82.77533	1543.54932	-674.45752	275.19983	1557.43433	-575.59332	102.73019	1360.25818	-560.93280	-11.64675	1067.58484	-595.76630	235.21140	1066.31445	-793.55585	90.10052	1060.72620	-663.44824	-76.85976	877.28729	-585.13599	-17.47126	805.77551	-687.57184	-63.30511	762.32031	-708.16321	-36.91509	617.78955	-685.49054	70.97408	578.05212	-715.28076	-33.42288	570.77161	-662.57373	12.72583	521.60535	-760.82043	-42.93871	491.19101	-759.18219	-17.96846	207.82550	-651.30566	-70.92857	158.87085	-609.91370	-80.76323	155.00664	-549.85394	-32.81425	162.22638	-597.21027	22.64729	169.10077	-715.10724	68.52130	217.75127	-671.68768	52.01069	159.86002	-789.67334	42.30090	177.29883	-687.18933	281.76471	878.89862	-584.56158	214.81708	816.70831	-699.15485	265.49664	748.24207	-730.56885	245.95738	645.98029	-683.80841	143.84201	582.48907	-730.48450	242.35764	579.60889	-674.28033	205.91020	538.60010	-771.11212	251.95102	505.42990	-769.33203	225.59737	205.83235	-662.26617	300.05966	155.09956	-625.56439	309.23788	157.01118	-556.60193	257.63730	163.85327	-592.29694	222.12027	174.77435	-710.94971	154.91577	217.57051	-674.69940	174.91560	158.99028	-794.69135	176.30954	185.71378	-528.21063	304.15094	146.32983	-518.00232	-72.75842	143.03558	-875.87610	-78.68810	141.24413	-882.66724	296.22098	144.67111	
